<?xml version="1.0" encoding="utf-8"?>
<!-- Generator: Adobe Illustrator 17.0.0, SVG Export Plug-In . SVG Version: 6.00 Build 0)  -->
<!DOCTYPE svg PUBLIC "-//W3C//DTD SVG 1.1//EN" "http://www.w3.org/Graphics/SVG/1.1/DTD/svg11.dtd">
<svg version="1.1" id="Layer_1" xmlns="http://www.w3.org/2000/svg" xmlns:xlink="http://www.w3.org/1999/xlink" x="0px" y="0px"
	 width="161.333px" height="82.421px" viewBox="104.5 57.079 161.333 82.421" enable-background="new 104.5 57.079 161.333 82.421"
	 xml:space="preserve">
<g>
	
		<linearGradient id="SVGID_1_" gradientUnits="userSpaceOnUse" x1="-140.2938" y1="958.9799" x2="-3.487" y2="958.9799" gradientTransform="matrix(1 0 0 -1 254 1060)">
		<stop  offset="0" style="stop-color:#DED641"/>
		<stop  offset="0.618" style="stop-color:#D6B22C"/>
		<stop  offset="1" style="stop-color:#F69320"/>
	</linearGradient>
	<path fill="url(#SVGID_1_)" d="M250.512,109.513c0,6.627-5.373,12-12,12H135.846c-3.903,0-19.808,7.219-22,4.333
		c-1.53-2.014,10-13.609,10-16.333v-22c0-6.627,5.373-12,12-12h102.667c6.627,0,12,5.373,12,12v22H250.512z"/>
	
		<radialGradient id="SVGID_2_" cx="-52.0382" cy="1098.5046" r="94.7851" gradientTransform="matrix(1 0 0 -0.4883 254 654.5579)" gradientUnits="userSpaceOnUse">
		<stop  offset="0.3667" style="stop-color:#FFFFFF;stop-opacity:0"/>
		<stop  offset="0.9105" style="stop-color:#FFFFFF;stop-opacity:0.7041"/>
		<stop  offset="1" style="stop-color:#FFFFFF;stop-opacity:0.82"/>
	</radialGradient>
	<path opacity="0.58" fill="url(#SVGID_2_)" enable-background="new    " d="M250.512,109.513c0,6.627-5.373,12-12,12H135.846
		c-3.903,0-19.808,7.219-22,4.333c-1.53-2.014,10-13.609,10-16.333v-22c0-6.627,5.373-12,12-12h102.667c6.627,0,12,5.373,12,12v22
		H250.512z"/>
	<g opacity="0.49">
		<path fill="#FFFFFF" d="M115.963,125.077c-1.803-0.243,1.828-4.258,2.505-5.161c1.758-2.348,3.609-4.618,5.261-7.044
			c0.843-1.237,1.319-2.423,1.319-3.872c0-6.709,0-13.417,0-20.125c0-13.941,14.054-11.912,23.601-11.912
			c28.373,0,56.745,0,85.118,0c3.918,0,7.365-0.237,10.911,1.938c6.688,4.101,4.631,15.507,4.631,22.093c0,2.762,0,5.524,0,8.287
			c0,6.167-4.946,10.418-10.797,10.782c-2.393,0.149-4.843,0-7.238,0c-28.626,0-57.251,0-85.877,0c-2.916,0-5.832,0-8.749,0
			C129.548,120.062,123.076,124.627,115.963,125.077c-0.014,0.001,0.007,0.5,0,0.5c7.37-0.467,13.985-5.015,21.379-5.015
			c4.237,0,8.474,0,12.712,0c15.361,0,30.723,0,46.084,0c12.831,0,25.663,0,38.494,0c4.534,0,8.407-0.087,11.951-3.631
			c3.71-3.71,2.731-10.244,2.731-14.971c0-10.193,2.536-25.497-12.299-25.497c-11.356,0-22.711,0-34.067,0
			c-15.853,0-31.707,0-47.56,0c-5.221,0-10.442,0-15.663,0c-4.534,0-8.407,0.087-11.951,3.631
			c-4.449,4.449-2.731,14.426-2.731,19.915c0,3.229,0.349,6.681-0.082,9.884c-0.355,2.636-3.446,5.564-4.97,7.542
			c-1.782,2.311-4.055,4.726-5.067,7.502c-0.016,0.044-0.006,0.499,0,0.5c0.347,0.047,0.693,0.093,1.04,0.14
			C115.945,125.575,115.989,125.08,115.963,125.077z"/>
	</g>
	<path fill="none" stroke="#97B03C" stroke-width="0.25" stroke-miterlimit="1" d="M250.512,109.513c0,6.627-5.373,12-12,12H135.846
		c-3.903,0-19.808,7.219-22,4.333c-1.53-2.014,10-13.609,10-16.333v-22c0-6.627,5.373-12,12-12h102.667c6.627,0,12,5.373,12,12v22
		H250.512z"/>
</g>
</svg>
